<?xml version="1.0" encoding="UTF-8"?>
<svg width="256px" height="256px" viewBox="0 0 256 256" version="1.1" xmlns="http://www.w3.org/2000/svg" xmlns:xlink="http://www.w3.org/1999/xlink" preserveAspectRatio="xMidYMid">
    <title>Funnel</title>
    <g>
        <path d="M230.4,25.6 L25.6,25.6 C20.736,25.6 16.384,28.4672 14.6944,32.9728 C13.0048,37.4784 14.2848,42.5472 18.0736,45.7216 L102.4,115.712 L102.4,204.8 C102.4,208.384 104.1344,211.7632 107.008,213.8176 C108.6464,214.9952 110.6432,215.6 112.64,215.6 C113.9648,215.6 115.304,215.32 116.5568,214.7584 L168.9568,188.3584 C172.4352,186.624 174.6,183.024 174.6,179.2 L174.6,115.712 L258.9264,45.7216 C262.7152,42.5472 263.9952,37.4784 262.3056,32.9728 C260.616,28.4672 256.264,25.6 251.4,25.6 L230.4,25.6 Z" fill="#4CAF50"></path>
    </g>
</svg>
