<?xml version="1.0" encoding="UTF-8"?>
<svg width="256px" height="256px" viewBox="0 0 256 256" version="1.1" xmlns="http://www.w3.org/2000/svg" xmlns:xlink="http://www.w3.org/1999/xlink" preserveAspectRatio="xMidYMid">
    <title>Google Analytics</title>
    <g>
        <path d="M238.545931,88.7273 L238.545931,194.181826 C238.545931,198.298766 235.200089,201.644271 231.082467,201.644271 L192.290286,201.644271 L192.290286,81.2648545 C192.290286,77.1475682 195.636128,73.8020636 199.75375,73.8020636 L231.082467,73.8020636 C235.200089,73.8024091 238.545931,77.1479136 238.545931,88.7273" fill="#F9AB00"></path>
        <path d="M169.412175,201.644271 L130.619994,201.644271 L130.619994,129.193447 C130.619994,125.076853 133.965835,121.731002 138.083458,121.731002 L161.94871,121.731002 C166.066333,121.731002 169.412175,125.076853 169.412175,129.193447 L169.412175,201.644271 Z" fill="#E37400"></path>
        <path d="M107.741538,201.644271 L68.9497021,201.644271 L68.9497021,168.752338 C68.9497021,164.635744 72.2958898,161.289893 76.4135123,161.289893 L100.278764,161.289893 C104.396387,161.289893 107.742229,164.635744 107.742229,168.752338 L107.741538,201.644271 Z" fill="#E37400"></path>
        <path d="M17.4556636,201.644271 L17.4556636,48.0000091 C17.4556636,31.1573091 31.1590182,17.4552 48.0017182,17.4552 L201.643661,17.4552 C201.643661,17.4552 201.643661,63.7101091 201.643661,73.8024 C171.643661,78.8024 169.412175,97.1498 169.412175,121.731348 C169.412175,97.1498 139.412175,86.8024 130.619994,129.193792 C130.619994,122.731348 110.922539,111.731348 107.741883,161.290238 C107.741883,146.731348 87.9497021,142.731348 68.9497021,168.752684 C68.9497021,158.731348 48.9497021,158.731348 17.4556636,201.644271 Z" fill="#FFF"></path>
    </g>
</svg>
