<?xml version="1.0" encoding="UTF-8"?>
<svg width="256px" height="256px" viewBox="0 0 256 256" version="1.1" xmlns="http://www.w3.org/2000/svg" xmlns:xlink="http://www.w3.org/1999/xlink" preserveAspectRatio="xMidYMid">
    <title>Meta</title>
    <g>
        <path d="M181.2735,254.41185 C175.7746,255.452636 170.215908,256 164.615385,256 C159.014862,256 153.45617,255.452636 147.95727,254.41185 L108.571054,146.955651 L69.1848387,254.41185 C63.6859387,255.452636 58.127247,256 52.5267241,256 C46.9262012,256 41.367509,255.452636 35.86861,254.41185 L94.9386323,108.571054 L35.86861,35.86861 C41.367509,34.8278243 46.9262012,34.2804598 52.5267241,34.2804598 C58.127247,34.2804598 63.6859387,34.8278243 69.1848387,35.86861 L108.571054,143.324809 L147.95727,35.86861 C153.45617,34.8278243 159.014862,34.2804598 164.615385,34.2804598 C170.215908,34.2804598 175.7746,34.8278243 181.2735,35.86861 L122.203477,108.571054 L181.2735,254.41185 Z" fill="#0668E1"></path>
    </g>
</svg>
